<svg width="24" height="24" viewBox="0 0 24 24" fill="none" xmlns="http://www.w3.org/2000/svg">
<path d="M12 5.625C11.1842 5.625 10.3866 5.86693 9.70827 6.32019C9.02992 6.77345 8.50121 7.41769 8.189 8.17143C7.87679 8.92518 7.7951 9.75458 7.95426 10.5547C8.11343 11.3549 8.50629 12.0899 9.08318 12.6668C9.66008 13.2437 10.3951 13.6366 11.1953 13.7957C11.9954 13.9549 12.8248 13.8732 13.5786 13.561C14.3323 13.2488 14.9766 12.7201 15.4298 12.0417C15.8831 11.3634 16.125 10.5658 16.125 9.75C16.1238 8.65636 15.6888 7.60787 14.9154 6.83455C14.1421 6.06124 13.0936 5.62624 12 5.625ZM12 11.625C11.6292 11.625 11.2666 11.515 10.9583 11.309C10.65 11.103 10.4096 10.8101 10.2677 10.4675C10.1258 10.1249 10.0887 9.74792 10.161 9.3842C10.2334 9.02049 10.412 8.6864 10.6742 8.42417C10.9364 8.16195 11.2705 7.98337 11.6342 7.91103C11.9979 7.83868 12.3749 7.87581 12.7175 8.01772C13.0601 8.15964 13.353 8.39996 13.559 8.70831C13.765 9.01665 13.875 9.37916 13.875 9.75C13.8745 10.2471 13.6767 10.7237 13.3252 11.0752C12.9737 11.4267 12.4971 11.6245 12 11.625ZM12 1.125C9.7133 1.12758 7.521 2.03711 5.90405 3.65405C4.28711 5.271 3.37758 7.4633 3.375 9.75C3.375 17.0023 11.0289 22.4436 11.3548 22.6717C11.5439 22.804 11.7692 22.875 12 22.875C12.2308 22.875 12.4561 22.804 12.6452 22.6717C14.0943 21.6045 15.4204 20.3796 16.5989 19.0194C19.2328 15.9905 20.625 12.7852 20.625 9.75C20.6224 7.4633 19.7129 5.271 18.0959 3.65405C16.479 2.03711 14.2867 1.12758 12 1.125ZM14.9346 17.5044C14.0407 18.531 13.0588 19.4775 12 20.3331C10.9412 19.4775 9.9593 18.5311 9.06544 17.5044C7.49587 15.6906 5.625 12.8728 5.625 9.75C5.625 8.05924 6.29665 6.43774 7.49219 5.24219C8.68774 4.04665 10.3092 3.375 12 3.375C13.6908 3.375 15.3123 4.04665 16.5078 5.24219C17.7034 6.43774 18.375 8.05924 18.375 9.75C18.375 12.8728 16.5041 15.6906 14.9346 17.5044Z" fill="white"/>
</svg>
