<svg width="24" height="24" viewBox="0 0 24 24" fill="none" xmlns="http://www.w3.org/2000/svg">
<path d="M22.1236 5.22253C22.1231 5.20216 22.1221 5.18184 22.1205 5.16159C22.1192 5.14422 22.1175 5.12697 22.1153 5.10984C22.1107 5.07294 22.1042 5.03627 22.0961 4.99997C22.0879 4.96419 22.078 4.92881 22.0665 4.89394C22.0608 4.87659 22.0543 4.85953 22.0477 4.84238C22.0347 4.80816 22.0197 4.7747 22.0029 4.74216C21.9946 4.72584 21.9861 4.70963 21.9771 4.69378C21.968 4.67802 21.9586 4.66249 21.9487 4.64719C21.9185 4.59928 21.8844 4.55383 21.847 4.51125C21.8408 4.50412 21.8356 4.49672 21.8292 4.48978C21.824 4.48397 21.818 4.479 21.8125 4.47328C21.7988 4.45903 21.7847 4.44516 21.7703 4.43166C21.7571 4.41919 21.7439 4.40691 21.7302 4.39519C21.7166 4.3837 21.7027 4.37254 21.6886 4.36172C21.6734 4.34975 21.6579 4.33819 21.6421 4.32703C21.6283 4.31737 21.6141 4.30847 21.5999 4.29947C21.5834 4.2888 21.5666 4.27858 21.5495 4.26881C21.5345 4.26038 21.519 4.25287 21.5036 4.24509C21.4867 4.23666 21.4699 4.22813 21.4526 4.22053C21.4358 4.21313 21.4186 4.20666 21.4013 4.2C21.3848 4.19372 21.3683 4.18734 21.3517 4.18181C21.3334 4.17581 21.3148 4.17084 21.2963 4.16578C21.2795 4.16119 21.263 4.15659 21.2461 4.15284C21.2276 4.14888 21.209 4.14538 21.1903 4.14234C21.1724 4.13912 21.1543 4.13634 21.1362 4.134C21.1186 4.13199 21.1009 4.13039 21.0833 4.12922C21.0632 4.12765 21.0432 4.12662 21.0232 4.12613C21.0154 4.12603 21.0078 4.125 21 4.125H3C2.99213 4.125 2.98462 4.12594 2.97684 4.12613C2.95669 4.12659 2.93663 4.12772 2.91656 4.12922C2.89897 4.13041 2.8814 4.132 2.86388 4.134C2.84559 4.13625 2.8275 4.13925 2.80931 4.14244C2.79084 4.14553 2.77228 4.14872 2.754 4.15275C2.73703 4.15659 2.72016 4.16119 2.70319 4.16588C2.68491 4.17094 2.66663 4.17581 2.64872 4.18172C2.63156 4.18734 2.61478 4.19391 2.59791 4.20028C2.58103 4.20684 2.56416 4.21312 2.54766 4.22034C2.53012 4.22812 2.51297 4.23675 2.49572 4.24538C2.48063 4.25297 2.46544 4.26038 2.45072 4.26863C2.43347 4.27838 2.41659 4.28897 2.39972 4.29975C2.38566 4.30856 2.37159 4.31737 2.358 4.32694C2.34206 4.33791 2.32669 4.34981 2.31122 4.36181C2.29716 4.37269 2.28328 4.38356 2.26987 4.39509C2.25614 4.40695 2.2427 4.41914 2.22956 4.43166C2.21522 4.44525 2.20106 4.45903 2.18747 4.47328C2.18203 4.47891 2.17603 4.48397 2.17069 4.48978C2.16441 4.49672 2.15916 4.50412 2.15297 4.51116C2.12822 4.53953 2.10488 4.56909 2.08303 4.59975C2.07197 4.61531 2.06147 4.63116 2.05116 4.64719C2.04141 4.66256 2.03194 4.67803 2.02294 4.69378C2.01384 4.70963 2.00541 4.72584 1.99716 4.74216C1.98872 4.75866 1.98066 4.77516 1.97316 4.79184C1.96579 4.80851 1.95885 4.82536 1.95234 4.84238C1.94569 4.85944 1.93922 4.87659 1.93341 4.89394C1.92769 4.91128 1.92253 4.92881 1.91756 4.94644C1.91259 4.96425 1.90791 4.98206 1.90388 4.99988C1.89575 5.03621 1.88933 5.07291 1.88466 5.10984C1.88253 5.12697 1.88081 5.14419 1.8795 5.1615C1.87788 5.18181 1.87684 5.20213 1.87641 5.22244C1.87622 5.23181 1.875 5.24072 1.875 5.25V18C1.87557 18.4971 2.0733 18.9737 2.42481 19.3252C2.77631 19.6767 3.25289 19.8744 3.75 19.875H20.25C20.7471 19.8744 21.2237 19.6767 21.5752 19.3252C21.9267 18.9737 22.1244 18.4971 22.125 18V5.25C22.125 5.24063 22.1238 5.23172 22.1236 5.22253ZM18.1079 6.375L12 11.9738L5.89219 6.375H18.1079ZM4.125 17.625V7.80731L11.2399 14.3293C11.4473 14.5195 11.7186 14.625 12 14.625C12.2814 14.625 12.5527 14.5195 12.7601 14.3293L19.875 7.80731V17.625H4.125Z" fill="white"/>
</svg>
