<svg width="22" height="22" viewBox="0 0 22 22" fill="none" xmlns="http://www.w3.org/2000/svg">
<path d="M2.75697 5.2299C3.49035 12.627 9.37309 18.5097 16.7702 19.2431C17.6305 19.3284 18.3333 18.6194 18.3333 17.7548V14.9697C18.3333 14.2959 17.9022 13.6978 17.263 13.4847L14.5551 12.5821C13.9926 12.3946 13.3725 12.541 12.9532 12.9602L12.5198 13.3937C12.2586 13.6548 11.8493 13.6993 11.5445 13.4908C10.1398 12.5299 9.35186 11.7436 8.49312 10.4507C8.29213 10.1481 8.34017 9.74655 8.59705 9.48967L9.03986 9.04686C9.45911 8.62761 9.60551 8.00747 9.41801 7.44499L8.51538 4.73709C8.30232 4.09789 7.70414 3.66675 7.03037 3.66675H4.24524C3.38073 3.66675 2.67168 4.3696 2.75697 5.2299Z" fill="#5F0D52"/>
</svg>
