<svg width="14" height="14" viewBox="0 0 14 14" fill="none" xmlns="http://www.w3.org/2000/svg">
<path d="M8.46858 13.9999H8.49983C8.65427 14.0008 8.80542 13.9552 8.9336 13.869C9.06178 13.7829 9.16108 13.6601 9.21858 13.5168L9.19666 13.5085L9.19674 13.5083C9.14098 13.6472 9.04474 13.7661 8.92052 13.8496C8.79624 13.9331 8.64971 13.9773 8.49996 13.9765H8.49983H8.4691M8.46858 13.9999L8.46963 13.9765C8.46945 13.9765 8.46928 13.9765 8.4691 13.9765M8.46858 13.9999V13.9765H8.4691M8.46858 13.9999L8.4691 13.9765M8.4691 13.9765C8.17379 13.963 7.92874 13.7657 7.83168 13.4844L7.83151 13.484C7.82949 13.4785 7.82777 13.4734 7.82603 13.4675L7.82617 13.4675L7.82513 13.4651L5.99283 9.17315C5.96895 9.09373 5.9662 9.00946 5.98487 8.92865C6.00363 8.84744 6.04336 8.77257 6.1001 8.71152L8.4691 13.9765ZM13.7645 0.236761C13.8636 0.33623 13.9317 0.462275 13.9607 0.599652C13.9896 0.737029 13.9781 0.879854 13.9276 1.01085L13.9276 1.01099L9.19683 13.5081L6.10012 8.71149L12.5164 1.82898C12.5165 1.82888 12.5166 1.82879 12.5167 1.82869C12.5393 1.80605 12.5572 1.77921 12.5694 1.74969C12.5817 1.72004 12.588 1.68825 12.588 1.65616C12.588 1.62406 12.5817 1.59228 12.5694 1.56263C12.5571 1.53297 12.5391 1.50603 12.5164 1.48334C12.4937 1.46064 12.4668 1.44264 12.4371 1.43035C12.4075 1.41807 12.3757 1.41175 12.3436 1.41175C12.3115 1.41175 12.2797 1.41807 12.25 1.43035C12.2205 1.44258 12.1937 1.46048 12.1711 1.48304C12.171 1.48314 12.1709 1.48324 12.1708 1.48334L5.28512 7.8993C5.22406 7.95605 5.14918 7.99579 5.06797 8.01455C4.98716 8.03322 4.90288 8.03048 4.82347 8.0066L0.534033 6.17492L0.534076 6.17481L0.531912 6.17413L0.519453 6.17018C0.519391 6.17016 0.519329 6.17014 0.519268 6.17012C0.377472 6.12263 0.25378 6.03255 0.165074 5.91216C0.0763296 5.79172 0.0269276 5.64682 0.0236156 5.49725C0.0203037 5.34768 0.0632432 5.20074 0.14657 5.07649C0.228717 4.954 0.346169 4.85945 0.483266 4.80534V4.80622L0.491562 4.80308L12.9925 0.0715156L12.9925 0.0715023C13.1235 0.021713 13.266 0.0108259 13.4029 0.0401515C13.5399 0.0694738 13.6654 0.13775 13.7645 0.236761ZM13.7645 0.236761C13.7645 0.236772 13.7645 0.236784 13.7645 0.236795L13.7811 0.220221L13.7645 0.236761Z" fill="#F8FDFF" stroke="#F8FDFF" stroke-width="0.046875"/>
</svg>
